<svg xmlns="http://www.w3.org/2000/svg" width="128" height="128" xml:space="preserve"><path fill="#5b2c04" d="M89.496 32.461h4v66.814h-4zM34.506 32.461h4v66.814h-4zM105.037 128H22.965v-8.68c0-5.524 4.551-10.019 10.146-10.019H94.89c5.596 0 10.146 4.493 10.146 10.017V128zm-78.072-4h74.072v-4.682c0-3.317-2.758-6.017-6.146-6.017h-61.78c-3.389 0-6.146 2.7-6.146 6.019V124z"/><path fill="#5b2c04" d="M93.531 112.634H34.469c-2.6 0-4.715-2.097-4.715-4.673v-5.346c0-2.577 2.115-4.674 4.715-4.674h59.062c2.602 0 4.717 2.097 4.717 4.674v5.346c0 2.576-2.115 4.673-4.717 4.673zm-59.062-10.693c-.394 0-.715.303-.715.674v5.346c0 .371.321.673.715.673h59.062c.395 0 .717-.302.717-.673v-5.346c0-.371-.322-.674-.717-.674H34.469zM95.219 34.642c-3.676 0-7.352-1.377-10.15-4.132-2.254-2.22-3.494-5.173-3.494-8.315 0-3.142 1.24-6.093 3.494-8.312 3.863-3.797 10.145-3.797 14.004 0a8.137 8.137 0 0 1 2.453 5.836 8.142 8.142 0 0 1-2.453 5.832l-2.805-2.852a4.161 4.161 0 0 0-.002-5.965c-2.313-2.273-6.078-2.275-8.393.001a7.614 7.614 0 0 0-2.299 5.46c0 2.062.816 4.002 2.301 5.464 4.049 3.985 10.639 3.986 14.689 0 2.535-2.496 3.932-5.811 3.932-9.336s-1.396-6.842-3.932-9.338c-3.15-3.102-6.959-4.854-10.725-4.934-5.316-.114-15.09-.001-15.188 0l-.047-4c.098-.001 9.936-.116 15.32 0 4.789.102 9.564 2.262 13.445 6.083 3.305 3.254 5.125 7.583 5.125 12.189 0 4.605-1.82 8.934-5.127 12.187-2.795 2.755-6.472 4.132-10.148 4.132z"/><path fill="#5b2c04" d="M32.781 34.642c-3.676 0-7.353-1.377-10.151-4.132-3.306-3.253-5.126-7.581-5.126-12.187 0-4.606 1.82-8.935 5.126-12.189 3.883-3.82 8.66-5.98 13.449-6.083 5.387-.116 39.614-.005 41.071 0l-.014 4c-.355-.002-35.635-.116-40.972 0-3.766.08-7.576 1.833-10.729 4.935-2.536 2.496-3.932 5.812-3.932 9.337s1.396 6.841 3.932 9.336c4.051 3.986 10.642 3.987 14.692 0a7.619 7.619 0 0 0 2.301-5.464 7.614 7.614 0 0 0-2.301-5.461c-2.314-2.275-6.079-2.275-8.391 0a4.152 4.152 0 0 0-1.259 2.983c0 1.124.447 2.183 1.259 2.981l-2.805 2.852a8.122 8.122 0 0 1-2.454-5.833c0-2.206.871-4.278 2.454-5.835 3.858-3.797 10.14-3.797 14.002 0 2.254 2.219 3.496 5.171 3.496 8.313 0 3.142-1.241 6.095-3.495 8.315-2.799 2.755-6.476 4.132-10.153 4.132z"/><g><path fill="#5b2c04" d="M41.649 14.649h44.353v4H41.649z"/></g><g><path fill="#5b2c04" d="M48.821 91.359a2 2 0 0 1-2-2V36.8a2 2 0 0 1 4 0v52.56a2 2 0 0 1-2 1.999z"/></g><g><path fill="#5b2c04" d="M64.267 91.359a2 2 0 0 1-2-2V28.67a2 2 0 0 1 3.999 0v60.689a2 2 0 0 1-1.999 2z"/></g><g><path fill="#5b2c04" d="M79.711 91.359a2 2 0 0 1-2-2V36.8a2 2 0 0 1 4 0v52.56a2 2 0 0 1-2 1.999z"/></g></svg>